<?xml version="1.0" standalone="no"?>
<!DOCTYPE svg PUBLIC "-//W3C//DTD SVG 20010904//EN"
 "http://www.w3.org/TR/2001/REC-SVG-20010904/DTD/svg10.dtd">
<svg version="1.0" xmlns="http://www.w3.org/2000/svg"
 width="1280.000000pt" height="1280.000000pt" viewBox="0 0 1280.000000 1280.000000"
 preserveAspectRatio="xMidYMid meet">
<g transform="translate(0.000000,1280.000000) scale(0.100000,-0.100000)"
fill="#ffffff" stroke="none">
<path d="M8108 12166 c-137 -50 -286 -242 -455 -584 -122 -247 -135 -261 -345
-366 -84 -42 -183 -99 -220 -127 -273 -204 -506 -638 -574 -1065 -13 -84 -15
-145 -11 -266 l5 -157 -36 -58 c-124 -201 -355 -458 -540 -601 -234 -180 -448
-285 -724 -356 -171 -44 -259 -80 -378 -157 -388 -250 -739 -723 -1140 -1534
-182 -368 -215 -465 -254 -750 -71 -517 -24 -1597 96 -2195 26 -129 28 -299 4
-482 -16 -125 -18 -131 -91 -280 -163 -337 -225 -611 -203 -914 31 -439 292
-819 738 -1076 700 -403 1751 -445 2785 -111 397 129 634 252 623 325 -14 97
-430 103 -928 13 -283 -51 -375 -59 -720 -59 -207 -1 -369 4 -445 12 -946 105
-1474 444 -1475 948 0 115 48 330 77 341 7 3 41 0 75 -6 179 -31 402 -43 953
-51 314 -5 714 -14 890 -20 349 -13 949 -8 1135 10 161 15 294 38 365 64 59
21 61 23 84 81 14 35 26 90 29 132 4 64 1 79 -22 127 -63 129 -223 190 -570
219 -82 6 -151 17 -152 22 -1 6 25 30 59 55 138 102 249 301 293 524 4 25 7
27 19 15 8 -8 50 -95 93 -194 193 -437 323 -649 481 -781 205 -170 436 -206
727 -113 173 55 225 137 174 270 -10 29 -17 56 -14 61 3 4 22 15 42 24 106 44
172 187 127 273 -20 39 -70 60 -195 83 -258 48 -288 59 -331 118 -38 51 -43
216 -42 1225 1 1031 0 1031 57 1226 70 242 233 539 445 809 133 170 196 284
249 451 75 235 97 424 89 787 -6 298 -28 502 -97 912 -36 215 -43 298 -29 349
19 69 115 159 269 251 251 150 352 246 435 415 53 109 77 197 78 290 2 122
-38 172 -171 216 -157 51 -277 147 -376 299 -110 169 -202 225 -477 295 -137
35 -207 63 -223 88 -10 16 -16 79 -21 227 -19 628 -75 806 -237 746z"/>
</g>
</svg>
